<?xml version="1.0" encoding="UTF-8" standalone="no"?>
<svg width="258.939mm" height="25.4mm"
 xmlns="http://www.w3.org/2000/svg" xmlns:xlink="http://www.w3.org/1999/xlink"  version="1.2" baseProfile="tiny">
<title>Qt SVG Document</title>
<desc>Generated with Qt</desc>
<defs>
</defs>
<g fill="none" stroke="black" stroke-width="1" fill-rule="evenodd" stroke-linecap="square" stroke-linejoin="bevel" >

<g fill="none" stroke="#000000" stroke-opacity="1" stroke-width="1" stroke-linecap="square" stroke-linejoin="bevel" transform="matrix(1,0,0,1,0,0)"
font-family="Ubuntu" font-size="11" font-weight="400" font-style="normal" 
>
</g>

<g fill="none" stroke="#000000" stroke-opacity="1" stroke-width="1" stroke-linecap="square" stroke-linejoin="bevel" transform="matrix(1,0,0,1,0,0)"
font-family="Ubuntu" font-size="11" font-weight="400" font-style="normal" 
>
</g>

<g fill="none" stroke="#000000" stroke-opacity="1" stroke-width="1" stroke-linecap="square" stroke-linejoin="bevel" transform="matrix(2,0,0,2,0.0032,72)"
font-family="Ubuntu" font-size="11" font-weight="400" font-style="normal" 
>
</g>

<g fill="#ffffff" fill-opacity="1" stroke="none" transform="matrix(2,0,0,2,0.0032,72)"
font-family="Ubuntu" font-size="11" font-weight="400" font-style="normal" 
>
<rect x="-0.0016" y="-36" width="366.987" height="36"/>
</g>

<g fill="none" stroke="#000000" stroke-opacity="1" stroke-width="1" stroke-linecap="square" stroke-linejoin="bevel" transform="matrix(2,0,0,2,0.0032,72)"
font-family="Ubuntu" font-size="11" font-weight="400" font-style="normal" 
>
</g>

<g fill="none" stroke="#000000" stroke-opacity="1" stroke-width="1" stroke-linecap="square" stroke-linejoin="bevel" transform="matrix(2,0,0,2,0.0032,72)"
font-family="Ubuntu" font-size="11" font-weight="400" font-style="normal" 
>
</g>

<g fill="none" stroke="#000000" stroke-opacity="1" stroke-width="1" stroke-linecap="square" stroke-linejoin="bevel" transform="matrix(2,0,0,2,0.0032,72)"
font-family="Ubuntu" font-size="11" font-weight="400" font-style="normal" 
>
</g>

<g fill="none" stroke="#000000" stroke-opacity="1" stroke-width="1" stroke-linecap="square" stroke-linejoin="bevel" transform="matrix(2,0,0,2,0.0032,72)"
font-family="Ubuntu" font-size="11" font-weight="400" font-style="normal" 
>
</g>

<g fill="none" stroke="#000000" stroke-opacity="1" stroke-width="1" stroke-linecap="square" stroke-linejoin="round" transform="matrix(2,0,0,2,0.0032,72)"
font-family="Ubuntu" font-size="11" font-weight="400" font-style="normal" 
>
<ellipse cx="42.896" cy="-18" rx="42.3976" ry="17.5"/>
</g>

<g fill="none" stroke="#000000" stroke-opacity="1" stroke-width="1" stroke-linecap="square" stroke-linejoin="bevel" transform="matrix(2,0,0,2,0.0032,72)"
font-family="Ubuntu" font-size="11" font-weight="400" font-style="normal" 
>
</g>

<g fill="none" stroke="#000000" stroke-opacity="1" stroke-width="1" stroke-linecap="square" stroke-linejoin="bevel" transform="matrix(2,0,0,2,46.8889,22)"
font-family="Ubuntu" font-size="11" font-weight="400" font-style="normal" 
>
</g>

<g fill="none" stroke="#000000" stroke-opacity="1" stroke-width="1" stroke-linecap="square" stroke-linejoin="bevel" transform="matrix(2,0,0,2,46.8889,22)"
font-family="sans" font-size="11" font-weight="100" font-style="normal" 
>
</g>

<g fill="#000000" fill-opacity="1" stroke="#000000" stroke-opacity="1" stroke-width="1" stroke-linecap="square" stroke-linejoin="round" transform="matrix(2,0,0,2,46.8889,22)"
font-family="sans" font-size="11" font-weight="100" font-style="normal" 
>
<path vector-effect="none" fill-rule="nonzero" d="M2.96875,2.98438 L3.53125,2.98438 L0.734375,12.0156 L0.171875,12.0156 L2.96875,2.98438 M9.28125,6.29688 C9.46875,5.80729 9.76042,5.44271 10.1563,5.20313 C10.5417,4.96354 10.9948,4.84375 11.5156,4.84375 C12.0365,4.84375 12.4531,5.02604 12.7656,5.39063 C13.0885,5.75521 13.25,6.41667 13.25,7.375 L13.25,11 L12.7656,11 L12.7656,7.40625 C12.7656,6.57292 12.651,6.01042 12.4219,5.71875 C12.1927,5.42708 11.8854,5.28125 11.5,5.28125 C10.9479,5.28125 10.4635,5.44792 10.0469,5.78125 C9.57813,6.15625 9.34375,6.76042 9.34375,7.59375 L9.34375,11 L8.85938,11 L8.85938,7.40625 C8.85938,6.60417 8.7474,6.04948 8.52344,5.74219 C8.29948,5.4349 7.98958,5.28125 7.59375,5.28125 C7.04167,5.28125 6.55729,5.45313 6.14063,5.79688 C5.67188,6.16146 5.4375,6.76042 5.4375,7.59375 L5.4375,11 L4.95313,11 L4.95313,4.98438 L5.4375,4.98438 L5.4375,6.10938 C5.61458,5.71354 5.89063,5.40104 6.26563,5.17188 C6.63021,4.95313 7.08333,4.84375 7.625,4.84375 C7.97917,4.84375 8.31771,4.95833 8.64063,5.1875 C8.89063,5.375 9.10417,5.74479 9.28125,6.29688 M19.2344,6.01563 C18.8802,5.52604 18.3958,5.28125 17.7813,5.28125 C17.1667,5.28125 16.6823,5.52604 16.3281,6.01563 C15.974,6.49479 15.7969,7.15104 15.7969,7.98438 C15.7969,8.83854 15.974,9.51042 16.3281,10 C16.6823,10.4896 17.1667,10.7344 17.7813,10.7344 C18.3958,10.7344 18.8802,10.4896 19.2344,10 C19.5885,9.5 19.7656,8.82813 19.7656,7.98438 C19.7656,7.16146 19.5885,6.50521 19.2344,6.01563 M17.7813,4.84375 C18.5417,4.84375 19.1458,5.13021 19.5938,5.70313 C20.0417,6.27604 20.2656,7.03646 20.2656,7.98438 C20.2656,8.97396 20.0417,9.75521 19.5938,10.3281 C19.1458,10.901 18.5417,11.1875 17.7813,11.1875 C17,11.1875 16.3854,10.901 15.9375,10.3281 C15.5,9.75521 15.2813,8.97396 15.2813,7.98438 C15.2813,7.02604 15.5052,6.26302 15.9531,5.69531 C16.401,5.1276 17.0104,4.84375 17.7813,4.84375 M21.8281,4.98438 L22.3438,4.98438 L24.375,10.4531 L26.4219,4.98438 L26.9375,4.98438 L24.7031,11 L24.0625,11 L21.8281,4.98438 M33.5625,7.75 L33.5625,8.0625 L29,8.0625 C29,9.02083 29.1875,9.69792 29.5625,10.0938 C29.9792,10.5208 30.5938,10.7344 31.4063,10.7344 C31.625,10.7344 31.9115,10.6875 32.2656,10.5938 C32.6198,10.5 32.974,10.3594 33.3281,10.1719 L33.3281,10.6875 C32.974,10.8438 32.612,10.9609 32.2422,11.0391 C31.8724,11.1172 31.5781,11.1563 31.3594,11.1563 C30.4323,11.1563 29.7344,10.9063 29.2656,10.4063 C28.7552,9.875 28.5,9.09375 28.5,8.0625 C28.5,6.98958 28.7292,6.1875 29.1875,5.65625 C29.6667,5.11458 30.3333,4.84375 31.1875,4.84375 C31.9688,4.84375 32.5625,5.10417 32.9688,5.625 C33.3646,6.16667 33.5625,6.875 33.5625,7.75 M33.0625,7.64063 C33.0625,6.79688 32.8698,6.18229 32.4844,5.79688 C32.1719,5.45313 31.7396,5.28125 31.1875,5.28125 C30.5938,5.28125 30.0938,5.45833 29.6875,5.8125 C29.3125,6.14583 29.0885,6.75521 29.0156,7.64063 L33.0625,7.64063 M38.9063,5.40625 C38.8229,5.36458 38.7135,5.33333 38.5781,5.3125 C38.4531,5.29167 38.3021,5.28125 38.125,5.28125 C37.5104,5.28125 37.0052,5.50521 36.6094,5.95313 C36.2865,6.31771 36.125,6.94271 36.125,7.82813 L36.125,11 L35.6406,11 L35.6406,4.98438 L36.125,4.98438 L36.125,6.10938 C36.2917,5.78646 36.5208,5.51563 36.8125,5.29688 C37.2083,4.99479 37.6771,4.84375 38.2188,4.84375 C38.3646,4.84375 38.4896,4.84896 38.5938,4.85938 C38.6979,4.85938 38.8021,4.86979 38.9063,4.89063 L38.9063,5.40625"/>
</g>

<g fill="none" stroke="#000000" stroke-opacity="1" stroke-width="1" stroke-linecap="square" stroke-linejoin="bevel" transform="matrix(2,0,0,2,46.8889,22)"
font-family="sans" font-size="11" font-weight="100" font-style="normal" 
>
</g>

<g fill="none" stroke="#000000" stroke-opacity="1" stroke-width="1" stroke-linecap="square" stroke-linejoin="bevel" transform="matrix(2,0,0,2,46.8889,22)"
font-family="Ubuntu" font-size="11" font-weight="400" font-style="normal" 
>
</g>

<g fill="none" stroke="#000000" stroke-opacity="1" stroke-width="1" stroke-linecap="square" stroke-linejoin="bevel" transform="matrix(2,0,0,2,0.0032,72)"
font-family="Ubuntu" font-size="11" font-weight="400" font-style="normal" 
>
</g>

<g fill="none" stroke="#000000" stroke-opacity="1" stroke-width="1" stroke-linecap="square" stroke-linejoin="bevel" transform="matrix(2,0,0,2,0.0032,72)"
font-family="Ubuntu" font-size="11" font-weight="400" font-style="normal" 
>
</g>

<g fill="none" stroke="#000000" stroke-opacity="1" stroke-width="1" stroke-linecap="square" stroke-linejoin="bevel" transform="matrix(2,0,0,2,0.0032,72)"
font-family="Ubuntu" font-size="11" font-weight="400" font-style="normal" 
>
</g>

<g fill="none" stroke="#000000" stroke-opacity="1" stroke-width="1" stroke-linecap="square" stroke-linejoin="round" transform="matrix(2,0,0,2,0.0032,72)"
font-family="Ubuntu" font-size="11" font-weight="400" font-style="normal" 
>
<ellipse cx="292.89" cy="-18" rx="73.5952" ry="17.5"/>
</g>

<g fill="none" stroke="#000000" stroke-opacity="1" stroke-width="1" stroke-linecap="square" stroke-linejoin="bevel" transform="matrix(2,0,0,2,0.0032,72)"
font-family="Ubuntu" font-size="11" font-weight="400" font-style="normal" 
>
</g>

<g fill="none" stroke="#000000" stroke-opacity="1" stroke-width="1" stroke-linecap="square" stroke-linejoin="bevel" transform="matrix(2,0,0,2,512.564,22)"
font-family="Ubuntu" font-size="11" font-weight="400" font-style="normal" 
>
</g>

<g fill="none" stroke="#000000" stroke-opacity="1" stroke-width="1" stroke-linecap="square" stroke-linejoin="bevel" transform="matrix(2,0,0,2,512.564,22)"
font-family="sans" font-size="11" font-weight="100" font-style="normal" 
>
</g>

<g fill="#000000" fill-opacity="1" stroke="#000000" stroke-opacity="1" stroke-width="1" stroke-linecap="square" stroke-linejoin="round" transform="matrix(2,0,0,2,512.564,22)"
font-family="sans" font-size="11" font-weight="100" font-style="normal" 
>
<path vector-effect="none" fill-rule="nonzero" d="M2.96875,2.98438 L3.53125,2.98438 L0.734375,12.0156 L0.171875,12.0156 L2.96875,2.98438 M8.21875,5.40625 C8.13542,5.36458 8.02604,5.33333 7.89063,5.3125 C7.76563,5.29167 7.61458,5.28125 7.4375,5.28125 C6.82292,5.28125 6.31771,5.50521 5.92188,5.95313 C5.59896,6.31771 5.4375,6.94271 5.4375,7.82813 L5.4375,11 L4.95313,11 L4.95313,4.98438 L5.4375,4.98438 L5.4375,6.10938 C5.60417,5.78646 5.83333,5.51563 6.125,5.29688 C6.52083,4.99479 6.98958,4.84375 7.53125,4.84375 C7.67708,4.84375 7.80208,4.84896 7.90625,4.85938 C8.01042,4.85938 8.11458,4.86979 8.21875,4.89063 L8.21875,5.40625 M12.7969,6.01563 C12.4427,5.52604 11.9583,5.28125 11.3438,5.28125 C10.7292,5.28125 10.2448,5.52604 9.89063,6.01563 C9.53646,6.49479 9.35938,7.15104 9.35938,7.98438 C9.35938,8.83854 9.53646,9.51042 9.89063,10 C10.2448,10.4896 10.7292,10.7344 11.3438,10.7344 C11.9583,10.7344 12.4427,10.4896 12.7969,10 C13.151,9.5 13.3281,8.82813 13.3281,7.98438 C13.3281,7.16146 13.151,6.50521 12.7969,6.01563 M11.3438,4.84375 C12.1042,4.84375 12.7083,5.13021 13.1563,5.70313 C13.6042,6.27604 13.8281,7.03646 13.8281,7.98438 C13.8281,8.97396 13.6042,9.75521 13.1563,10.3281 C12.7083,10.901 12.1042,11.1875 11.3438,11.1875 C10.5625,11.1875 9.94792,10.901 9.5,10.3281 C9.0625,9.75521 8.84375,8.97396 8.84375,7.98438 C8.84375,7.02604 9.06771,6.26302 9.51563,5.69531 C9.96354,5.1276 10.5729,4.84375 11.3438,4.84375 M15.3906,4.98438 L15.9063,4.98438 L17.9375,10.4531 L19.9844,4.98438 L20.5,4.98438 L18.2656,11 L17.625,11 L15.3906,4.98438 M22.4219,4.98438 L22.9219,4.98438 L22.9219,11 L22.4219,11 L22.4219,4.98438 M22.4219,2.64063 L22.9219,2.64063 L22.9219,3.3125 L22.4219,3.3125 L22.4219,2.64063 M30.0313,7.375 L30.0313,11 L29.5313,11 L29.5313,7.40625 C29.5313,6.625 29.4063,6.07552 29.1563,5.75781 C28.9063,5.4401 28.5365,5.28125 28.0469,5.28125 C27.474,5.28125 26.9896,5.45313 26.5938,5.79688 C26.1771,6.14063 25.9688,6.73958 25.9688,7.59375 L25.9688,11 L25.4844,11 L25.4844,4.98438 L25.9688,4.98438 L25.9688,6.10938 C26.1458,5.74479 26.3802,5.46875 26.6719,5.28125 C27.0885,4.98958 27.5521,4.84375 28.0625,4.84375 C28.6667,4.84375 29.1458,5.04688 29.5,5.45313 C29.8542,5.84896 30.0313,6.48958 30.0313,7.375 M36.4531,7.92188 C36.4531,7.08854 36.2839,6.44271 35.9453,5.98438 C35.6068,5.52604 35.1302,5.29688 34.5156,5.29688 C33.9115,5.29688 33.4401,5.52604 33.1016,5.98438 C32.763,6.44271 32.5938,7.08854 32.5938,7.92188 C32.5938,8.75521 32.763,9.40104 33.1016,9.85938 C33.4401,10.3177 33.9115,10.5469 34.5156,10.5469 C35.1302,10.5469 35.6068,10.3177 35.9453,9.85938 C36.2839,9.40104 36.4531,8.75521 36.4531,7.92188 M36.9375,10.25 C36.9375,11.5 36.7005,12.3177 36.2266,12.7031 C35.7526,13.0885 35.151,13.2813 34.4219,13.2813 C34.0677,13.2813 33.7396,13.2604 33.4375,13.2188 C33.125,13.1563 32.8229,13.0729 32.5313,12.9688 L32.5313,12.4063 C32.8229,12.5625 33.1094,12.6797 33.3906,12.7578 C33.6719,12.8359 33.9635,12.875 34.2656,12.875 C34.8594,12.875 35.3724,12.7474 35.8047,12.4922 C36.237,12.237 36.4531,11.5521 36.4531,10.4375 L36.4531,9.48438 C36.2969,9.90104 36.0938,10.2292 35.8438,10.4688 C35.4479,10.8229 35.0052,11 34.5156,11 C33.7552,11 33.1615,10.7318 32.7344,10.1953 C32.3073,9.65885 32.0938,8.90104 32.0938,7.92188 C32.0938,6.94271 32.3073,6.1849 32.7344,5.64844 C33.1615,5.11198 33.7552,4.84375 34.5156,4.84375 C35.0052,4.84375 35.4219,4.99479 35.7656,5.29688 C36.0365,5.53646 36.2656,5.85938 36.4531,6.26563 L36.4531,4.98438 L36.9375,4.98438 L36.9375,10.25 M43.4063,13.1719 L43.4063,13.5938 L37.6875,13.5938 L37.6875,13.1719 L43.4063,13.1719 M45.0625,3.28125 L45.0625,4.98438 L47.0938,4.98438 L47.0938,5.40625 L45.0625,5.40625 L45.0625,9.01563 C45.0625,9.47396 45.1198,9.79688 45.2344,9.98438 C45.4844,10.3802 45.8438,10.5781 46.3125,10.5781 L47.0938,10.5781 L47.0938,11 L46.3281,11 C45.8385,11 45.4219,10.8568 45.0781,10.5703 C44.7344,10.2839 44.5625,9.76563 44.5625,9.01563 L44.5625,5.40625 L43.8438,5.40625 L43.8438,4.98438 L44.5625,4.98438 L44.5625,3.28125 L45.0625,3.28125 M48.7969,8.60938 L48.7969,4.98438 L49.2813,4.98438 L49.2813,8.57813 C49.2813,9.35938 49.4063,9.90885 49.6563,10.2266 C49.9063,10.5443 50.276,10.7031 50.7656,10.7031 C51.3385,10.7031 51.8281,10.5313 52.2344,10.1875 C52.6406,9.84375 52.8438,9.24479 52.8438,8.39063 L52.8438,4.98438 L53.3281,4.98438 L53.3281,11 L52.8438,11 L52.8438,9.875 C52.6667,10.2396 52.4323,10.5156 52.1406,10.7031 C51.724,10.9948 51.2604,11.1406 50.75,11.1406 C50.1563,11.1406 49.6823,10.9375 49.3281,10.5313 C48.974,10.1354 48.7969,9.49479 48.7969,8.60938 M59.0938,5.40625 C59.0104,5.36458 58.901,5.33333 58.7656,5.3125 C58.6406,5.29167 58.4896,5.28125 58.3125,5.28125 C57.6979,5.28125 57.1927,5.50521 56.7969,5.95313 C56.474,6.31771 56.3125,6.94271 56.3125,7.82813 L56.3125,11 L55.8281,11 L55.8281,4.98438 L56.3125,4.98438 L56.3125,6.10938 C56.4792,5.78646 56.7083,5.51563 57,5.29688 C57.3958,4.99479 57.8646,4.84375 58.4063,4.84375 C58.5521,4.84375 58.6771,4.84896 58.7813,4.85938 C58.8854,4.85938 58.9896,4.86979 59.0938,4.89063 L59.0938,5.40625 M60.8594,3.28125 L60.8594,4.98438 L62.8906,4.98438 L62.8906,5.40625 L60.8594,5.40625 L60.8594,9.01563 C60.8594,9.47396 60.9167,9.79688 61.0313,9.98438 C61.2813,10.3802 61.6406,10.5781 62.1094,10.5781 L62.8906,10.5781 L62.8906,11 L62.125,11 C61.6354,11 61.2188,10.8568 60.875,10.5703 C60.5313,10.2839 60.3594,9.76563 60.3594,9.01563 L60.3594,5.40625 L59.6406,5.40625 L59.6406,4.98438 L60.3594,4.98438 L60.3594,3.28125 L60.8594,3.28125 M64.6563,2.64063 L65.1406,2.64063 L65.1406,11 L64.6563,11 L64.6563,2.64063 M72.3906,7.75 L72.3906,8.0625 L67.8281,8.0625 C67.8281,9.02083 68.0156,9.69792 68.3906,10.0938 C68.8073,10.5208 69.4219,10.7344 70.2344,10.7344 C70.4531,10.7344 70.7396,10.6875 71.0938,10.5938 C71.4479,10.5 71.8021,10.3594 72.1563,10.1719 L72.1563,10.6875 C71.8021,10.8438 71.4401,10.9609 71.0703,11.0391 C70.7005,11.1172 70.4063,11.1563 70.1875,11.1563 C69.2604,11.1563 68.5625,10.9063 68.0938,10.4063 C67.5833,9.875 67.3281,9.09375 67.3281,8.0625 C67.3281,6.98958 67.5573,6.1875 68.0156,5.65625 C68.4948,5.11458 69.1615,4.84375 70.0156,4.84375 C70.7969,4.84375 71.3906,5.10417 71.7969,5.625 C72.1927,6.16667 72.3906,6.875 72.3906,7.75 M71.8906,7.64063 C71.8906,6.79688 71.6979,6.18229 71.3125,5.79688 C71,5.45313 70.5677,5.28125 70.0156,5.28125 C69.4219,5.28125 68.9219,5.45833 68.5156,5.8125 C68.1406,6.14583 67.9167,6.75521 67.8438,7.64063 L71.8906,7.64063"/>
</g>

<g fill="none" stroke="#000000" stroke-opacity="1" stroke-width="1" stroke-linecap="square" stroke-linejoin="bevel" transform="matrix(2,0,0,2,512.564,22)"
font-family="sans" font-size="11" font-weight="100" font-style="normal" 
>
</g>

<g fill="none" stroke="#000000" stroke-opacity="1" stroke-width="1" stroke-linecap="square" stroke-linejoin="bevel" transform="matrix(2,0,0,2,512.564,22)"
font-family="Ubuntu" font-size="11" font-weight="400" font-style="normal" 
>
</g>

<g fill="none" stroke="#000000" stroke-opacity="1" stroke-width="1" stroke-linecap="square" stroke-linejoin="bevel" transform="matrix(2,0,0,2,0.0032,72)"
font-family="Ubuntu" font-size="11" font-weight="400" font-style="normal" 
>
</g>

<g fill="none" stroke="#000000" stroke-opacity="1" stroke-width="1" stroke-linecap="square" stroke-linejoin="bevel" transform="matrix(2,0,0,2,0.0032,72)"
font-family="Ubuntu" font-size="11" font-weight="400" font-style="normal" 
>
</g>

<g fill="none" stroke="#000000" stroke-opacity="1" stroke-width="1" stroke-linecap="square" stroke-linejoin="bevel" transform="matrix(2,0,0,2,0.0032,72)"
font-family="Ubuntu" font-size="11" font-weight="400" font-style="normal" 
>
</g>

<g fill="none" stroke="#000000" stroke-opacity="1" stroke-width="1" stroke-linecap="square" stroke-linejoin="round" transform="matrix(2,0,0,2,0.0032,72)"
font-family="Ubuntu" font-size="11" font-weight="400" font-style="normal" 
>
<path vector-effect="none" fill-rule="evenodd" d="M85.964,-18 C119.41,-18 167.26,-18 208.41,-18 "/>
</g>

<g fill="none" stroke="#000000" stroke-opacity="1" stroke-width="1" stroke-linecap="square" stroke-linejoin="bevel" transform="matrix(2,0,0,2,0.0032,72)"
font-family="Ubuntu" font-size="11" font-weight="400" font-style="normal" 
>
</g>

<g fill="none" stroke="#000000" stroke-opacity="1" stroke-width="1" stroke-linecap="square" stroke-linejoin="bevel" transform="matrix(2,0,0,2,214.739,7)"
font-family="Ubuntu" font-size="11" font-weight="400" font-style="normal" 
>
</g>

<g fill="none" stroke="#000000" stroke-opacity="1" stroke-width="1" stroke-linecap="square" stroke-linejoin="bevel" transform="matrix(2,0,0,2,214.739,7)"
font-family="sans" font-size="11" font-weight="100" font-style="normal" 
>
</g>

<g fill="#000000" fill-opacity="1" stroke="#000000" stroke-opacity="1" stroke-width="1" stroke-linecap="square" stroke-linejoin="round" transform="matrix(2,0,0,2,214.739,7)"
font-family="sans" font-size="11" font-weight="100" font-style="normal" 
>
<path vector-effect="none" fill-rule="nonzero" d="M2.96875,2.98438 L3.53125,2.98438 L0.734375,12.0156 L0.171875,12.0156 L2.96875,2.98438 M5.46875,3.28125 L5.46875,4.98438 L7.5,4.98438 L7.5,5.40625 L5.46875,5.40625 L5.46875,9.01563 C5.46875,9.47396 5.52604,9.79688 5.64063,9.98438 C5.89063,10.3802 6.25,10.5781 6.71875,10.5781 L7.5,10.5781 L7.5,11 L6.73438,11 C6.24479,11 5.82813,10.8568 5.48438,10.5703 C5.14063,10.2839 4.96875,9.76563 4.96875,9.01563 L4.96875,5.40625 L4.25,5.40625 L4.25,4.98438 L4.96875,4.98438 L4.96875,3.28125 L5.46875,3.28125 M9.20313,8.60938 L9.20313,4.98438 L9.6875,4.98438 L9.6875,8.57813 C9.6875,9.35938 9.8125,9.90885 10.0625,10.2266 C10.3125,10.5443 10.6823,10.7031 11.1719,10.7031 C11.7448,10.7031 12.2344,10.5313 12.6406,10.1875 C13.0469,9.84375 13.25,9.24479 13.25,8.39063 L13.25,4.98438 L13.7344,4.98438 L13.7344,11 L13.25,11 L13.25,9.875 C13.0729,10.2396 12.8385,10.5156 12.5469,10.7031 C12.1302,10.9948 11.6667,11.1406 11.1563,11.1406 C10.5625,11.1406 10.0885,10.9375 9.73438,10.5313 C9.38021,10.1354 9.20313,9.49479 9.20313,8.60938 M19.5,5.40625 C19.4167,5.36458 19.3073,5.33333 19.1719,5.3125 C19.0469,5.29167 18.8958,5.28125 18.7188,5.28125 C18.1042,5.28125 17.599,5.50521 17.2031,5.95313 C16.8802,6.31771 16.7188,6.94271 16.7188,7.82813 L16.7188,11 L16.2344,11 L16.2344,4.98438 L16.7188,4.98438 L16.7188,6.10938 C16.8854,5.78646 17.1146,5.51563 17.4063,5.29688 C17.8021,4.99479 18.2708,4.84375 18.8125,4.84375 C18.9583,4.84375 19.0833,4.84896 19.1875,4.85938 C19.2917,4.85938 19.3958,4.86979 19.5,4.89063 L19.5,5.40625 M21.2656,3.28125 L21.2656,4.98438 L23.2969,4.98438 L23.2969,5.40625 L21.2656,5.40625 L21.2656,9.01563 C21.2656,9.47396 21.3229,9.79688 21.4375,9.98438 C21.6875,10.3802 22.0469,10.5781 22.5156,10.5781 L23.2969,10.5781 L23.2969,11 L22.5313,11 C22.0417,11 21.625,10.8568 21.2813,10.5703 C20.9375,10.2839 20.7656,9.76563 20.7656,9.01563 L20.7656,5.40625 L20.0469,5.40625 L20.0469,4.98438 L20.7656,4.98438 L20.7656,3.28125 L21.2656,3.28125 M25.0625,2.64063 L25.5469,2.64063 L25.5469,11 L25.0625,11 L25.0625,2.64063 M32.7969,7.75 L32.7969,8.0625 L28.2344,8.0625 C28.2344,9.02083 28.4219,9.69792 28.7969,10.0938 C29.2135,10.5208 29.8281,10.7344 30.6406,10.7344 C30.8594,10.7344 31.1458,10.6875 31.5,10.5938 C31.8542,10.5 32.2083,10.3594 32.5625,10.1719 L32.5625,10.6875 C32.2083,10.8438 31.8464,10.9609 31.4766,11.0391 C31.1068,11.1172 30.8125,11.1563 30.5938,11.1563 C29.6667,11.1563 28.9688,10.9063 28.5,10.4063 C27.9896,9.875 27.7344,9.09375 27.7344,8.0625 C27.7344,6.98958 27.9635,6.1875 28.4219,5.65625 C28.901,5.11458 29.5677,4.84375 30.4219,4.84375 C31.2031,4.84375 31.7969,5.10417 32.2031,5.625 C32.599,6.16667 32.7969,6.875 32.7969,7.75 M32.2969,7.64063 C32.2969,6.79688 32.1042,6.18229 31.7188,5.79688 C31.4063,5.45313 30.974,5.28125 30.4219,5.28125 C29.8281,5.28125 29.3281,5.45833 28.9219,5.8125 C28.5469,6.14583 28.3229,6.75521 28.25,7.64063 L32.2969,7.64063 M35.2656,10.5625 L37.0313,10.5625 L37.0313,3.46875 L34.8281,4.35938 L34.8281,3.85938 L37.0156,2.98438 L37.5625,2.98438 L37.5625,10.5625 L39.3438,10.5625 L39.3438,11 L35.2656,11 L35.2656,10.5625 M43.5781,2.98438 L44.1406,2.98438 L41.3438,12.0156 L40.7813,12.0156 L43.5781,2.98438 M49.6719,5.28125 L49.6719,5.79688 C49.3802,5.61979 49.1354,5.5 48.9375,5.4375 C48.6042,5.33333 48.2865,5.28125 47.9844,5.28125 C47.1198,5.28125 46.5,5.5026 46.125,5.94531 C45.75,6.38802 45.5625,7.07292 45.5625,8 C45.5625,8.9375 45.75,9.6276 46.125,10.0703 C46.5,10.513 47.1198,10.7344 47.9844,10.7344 C48.276,10.7344 48.5573,10.6927 48.8281,10.6094 C49.1198,10.5365 49.401,10.4219 49.6719,10.2656 L49.6719,10.7656 C49.401,10.901 49.1198,11 48.8281,11.0625 C48.526,11.125 48.2292,11.1563 47.9375,11.1563 C47.0625,11.1563 46.3646,10.9167 45.8438,10.4375 C45.3229,9.95833 45.0625,9.14323 45.0625,7.99219 C45.0625,6.84115 45.3229,6.02604 45.8438,5.54688 C46.3646,5.07813 47.0625,4.84375 47.9375,4.84375 C48.2292,4.84375 48.5365,4.88542 48.8594,4.96875 C49.1823,5.04167 49.4531,5.14583 49.6719,5.28125 M55.9375,6.29688 C56.125,5.80729 56.4167,5.44271 56.8125,5.20313 C57.1979,4.96354 57.651,4.84375 58.1719,4.84375 C58.6927,4.84375 59.1094,5.02604 59.4219,5.39063 C59.7448,5.75521 59.9063,6.41667 59.9063,7.375 L59.9063,11 L59.4219,11 L59.4219,7.40625 C59.4219,6.57292 59.3073,6.01042 59.0781,5.71875 C58.849,5.42708 58.5417,5.28125 58.1563,5.28125 C57.6042,5.28125 57.1198,5.44792 56.7031,5.78125 C56.2344,6.15625 56,6.76042 56,7.59375 L56,11 L55.5156,11 L55.5156,7.40625 C55.5156,6.60417 55.4036,6.04948 55.1797,5.74219 C54.9557,5.4349 54.6458,5.28125 54.25,5.28125 C53.6979,5.28125 53.2135,5.45313 52.7969,5.79688 C52.3281,6.16146 52.0938,6.76042 52.0938,7.59375 L52.0938,11 L51.6094,11 L51.6094,4.98438 L52.0938,4.98438 L52.0938,6.10938 C52.2708,5.71354 52.5469,5.40104 52.9219,5.17188 C53.2865,4.95313 53.7396,4.84375 54.2813,4.84375 C54.6354,4.84375 54.974,4.95833 55.2969,5.1875 C55.5469,5.375 55.7604,5.74479 55.9375,6.29688 M66.3125,6.35938 L66.3125,2.64063 L66.7813,2.64063 L66.7813,11 L66.3125,11 L66.3125,9.64063 C66.0833,10.1615 65.8333,10.5156 65.5625,10.7031 C65.1667,11.0052 64.7865,11.1563 64.4219,11.1563 C63.7135,11.1563 63.1224,10.8672 62.6484,10.2891 C62.1745,9.71094 61.9375,8.94792 61.9375,8 C61.9375,7.05208 62.1745,6.28906 62.6484,5.71094 C63.1224,5.13281 63.7135,4.84375 64.4219,4.84375 C64.7865,4.84375 65.1667,4.98958 65.5625,5.28125 C65.8333,5.47917 66.0833,5.83854 66.3125,6.35938 M63.0781,5.90625 C62.6615,6.32292 62.4531,7.02083 62.4531,8 C62.4531,8.97917 62.6615,9.67708 63.0781,10.0938 C63.4948,10.5104 63.9323,10.7188 64.3906,10.7188 C64.8385,10.7188 65.2708,10.5104 65.6875,10.0938 C66.0938,9.67708 66.2969,8.97917 66.2969,8 C66.2969,7.02083 66.0938,6.32292 65.6875,5.90625 C65.2708,5.48958 64.8385,5.28125 64.3906,5.28125 C63.9323,5.28125 63.4948,5.48958 63.0781,5.90625 M73.6406,13.1719 L73.6406,13.5938 L67.9219,13.5938 L67.9219,13.1719 L73.6406,13.1719 M74.2344,4.98438 L74.75,4.98438 L76.7813,10.4531 L78.8281,4.98438 L79.3438,4.98438 L77.1094,11 L76.4688,11 L74.2344,4.98438 M85.9688,7.75 L85.9688,8.0625 L81.4063,8.0625 C81.4063,9.02083 81.5938,9.69792 81.9688,10.0938 C82.3854,10.5208 83,10.7344 83.8125,10.7344 C84.0313,10.7344 84.3177,10.6875 84.6719,10.5938 C85.026,10.5 85.3802,10.3594 85.7344,10.1719 L85.7344,10.6875 C85.3802,10.8438 85.0182,10.9609 84.6484,11.0391 C84.2786,11.1172 83.9844,11.1563 83.7656,11.1563 C82.8385,11.1563 82.1406,10.9063 81.6719,10.4063 C81.1615,9.875 80.9063,9.09375 80.9063,8.0625 C80.9063,6.98958 81.1354,6.1875 81.5938,5.65625 C82.0729,5.11458 82.7396,4.84375 83.5938,4.84375 C84.375,4.84375 84.9688,5.10417 85.375,5.625 C85.7708,6.16667 85.9688,6.875 85.9688,7.75 M85.4688,7.64063 C85.4688,6.79688 85.276,6.18229 84.8906,5.79688 C84.5781,5.45313 84.1458,5.28125 83.5938,5.28125 C83,5.28125 82.5,5.45833 82.0938,5.8125 C81.7188,6.14583 81.4948,6.75521 81.4219,7.64063 L85.4688,7.64063 M88.0469,2.64063 L88.5313,2.64063 L88.5313,11 L88.0469,11 L88.0469,2.64063"/>
</g>

<g fill="none" stroke="#000000" stroke-opacity="1" stroke-width="1" stroke-linecap="square" stroke-linejoin="bevel" transform="matrix(2,0,0,2,214.739,7)"
font-family="sans" font-size="11" font-weight="100" font-style="normal" 
>
</g>

<g fill="none" stroke="#000000" stroke-opacity="1" stroke-width="1" stroke-linecap="square" stroke-linejoin="bevel" transform="matrix(2,0,0,2,214.739,7)"
font-family="Ubuntu" font-size="11" font-weight="400" font-style="normal" 
>
</g>

<g fill="none" stroke="#000000" stroke-opacity="1" stroke-width="1" stroke-linecap="square" stroke-linejoin="bevel" transform="matrix(2,0,0,2,0.0032,72)"
font-family="Ubuntu" font-size="11" font-weight="400" font-style="normal" 
>
</g>

<g fill="#000000" fill-opacity="1" stroke="#000000" stroke-opacity="1" stroke-width="1" stroke-linecap="square" stroke-linejoin="round" transform="matrix(2,0,0,2,0.0032,72)"
font-family="Ubuntu" font-size="11" font-weight="400" font-style="normal" 
>
<path vector-effect="none" fill-rule="evenodd" d="M208.41,-18 L208.41,-14.4895 L218.44,-18 L208.41,-21.5105 L208.41,-18"/>
</g>

<g fill="none" stroke="#000000" stroke-opacity="1" stroke-width="1" stroke-linecap="square" stroke-linejoin="bevel" transform="matrix(2,0,0,2,0.0032,72)"
font-family="Ubuntu" font-size="11" font-weight="400" font-style="normal" 
>
</g>

<g fill="none" stroke="#000000" stroke-opacity="1" stroke-width="1" stroke-linecap="square" stroke-linejoin="bevel" transform="matrix(1,0,0,1,0,0)"
font-family="Ubuntu" font-size="11" font-weight="400" font-style="normal" 
>
</g>
</g>
</svg>
